# xmcd
#
# Track frame offsets:
#	150
#	16200
#	35550
#	54600
#	65850
#	81900
#	99075
#	112650
#	120300
#	135375
#	153150
#	166575
#	181500
#	199875
#	215175
#
# Disc length: 2988 seconds
#
# Revision: 0
# Processed by: cddbd v1.5.1PL2 Copyright (c) Steve Scherf et al.
# Submitted via: dBpowerAMP V4.0
#
DISCID=b90baa0f
DTITLE=Rubber Band - A bit of luck
DYEAR=1900
DGENRE=Acoustic
TTITLE0=a bit of luck
TTITLE1=before you accuse me
TTITLE2=crossroads
TTITLE3=caravan
TTITLE4=palace of the king
TTITLE5=losing u
TTITLE6=key to the highway
TTITLE7=goddbye pork pie hat
TTITLE8=lookin back
TTITLE9=same old blues
TTITLE10=goin down
TTITLE11=blue rainy day
TTITLE12=i love ur shoes
TTITLE13=sittin on the top of the world
TTITLE14=rokka rolla
EXTD=Acoustic blues standard from great italian group from Padova\nGreat acustic trio album. Also owned by bluesrock guitarist Popa chubby..\nHe say .. it' cool man !
EXTT0=
EXTT1=
EXTT2=
EXTT3=
EXTT4=
EXTT5=
EXTT6=
EXTT7=
EXTT8=
EXTT9=
EXTT10=
EXTT11=
EXTT12=
EXTT13=
EXTT14=
PLAYORDER=
